# xmcd
#
# Track frame offsets:
#	150
#	9872
#	23438
#	32579
#	43651
#	56276
#	67677
#	78751
#	86654
#	98119
#	109019
#	118965
#	129313
#	138202
#	148139
#	160516
#	171293
#	181614
#	192403
#	203940
#	214341
#	225327
#	236633
#	246347
#	257527
#	268065
#
# Disc length: 3722 seconds
#
# Revision: 0
# Processed by: cddbd v1.5.2PL0 Copyright (c) Steve Scherf et al.
# Submitted via: EasyCDDAExtractor 2010.6.0.0
#
DISCID=510e881a
DTITLE=Various Artist - Goldie Hill Vol. 2
DYEAR=1900
DGENRE=
TTITLE0=Hill Goldie - Second Chance
TTITLE1=Hill Goldie - Steel Guitar
TTITLE2=Hill Goldie - Sample My Kissin'
TTITLE3=Hill Goldie - I'm Beginning To Feel Mistreated
TTITLE4=Hill Goldie - Footsteps
TTITLE5=Hill Goldie - New Names New Faces
TTITLE6=Hill Goldie - Till I Said It To You
TTITLE7=Hill Goldie - Wasted Love Affair
TTITLE8=Hill Goldie - It's Only A Matter Of Time
TTITLE9=Hill Goldie and Red Sovine - Yankee Go Home
TTITLE10=Hill Goldie - What's Happened To Us
TTITLE11=Hill Goldie - Honky Tonk Music
TTITLE12=Hill Goldie - It's Here To Stay
TTITLE13=Hill Goldie - Don't Just Stand There
TTITLE14=Hill Goldie - Driftwood On The River
TTITLE15=Hill Goldie - I Slipped Off My Wedding Ring
TTITLE16=Hill Goldie - It's A Lovely Lovely World
TTITLE17=Hill Goldie - It's So Lonely On My Side Of The Sea
TTITLE18=Hill Goldie - Living Alone
TTITLE19=Hill Goldie - Missing Loving Missing Livin' Missing You
TTITLE20=Hill Goldie - Twice As Blue
TTITLE21=Hill Goldie - You're Looking For An Angel
TTITLE22=Hill Goldie - Cleanin' House
TTITLE23=Hill Goldie and Justin Tubb - Waterloo
TTITLE24=Hill Goldie - Recklessly
TTITLE25=Hill Goldie - Another Man's Woman
EXTD=
EXTT0=
EXTT1=
EXTT2=
EXTT3=
EXTT4=
EXTT5=
EXTT6=
EXTT7=
EXTT8=
EXTT9=
EXTT10=
EXTT11=
EXTT12=
EXTT13=
EXTT14=
EXTT15=
EXTT16=
EXTT17=
EXTT18=
EXTT19=
EXTT20=
EXTT21=
EXTT22=
EXTT23=
EXTT24=
EXTT25=
PLAYORDER=
